<svg width="24" height="24" viewBox="0 0 24 24" xmlns="http://www.w3.org/2000/svg"><title>ic-search-white</title><path d="M9.607 15.714A6.114 6.114 0 0 1 3.5 9.607 6.114 6.114 0 0 1 9.607 3.5a6.113 6.113 0 0 1 6.107 6.107 6.114 6.114 0 0 1-6.107 6.107M21.28 20.22l-5.793-5.793a7.572 7.572 0 0 0 1.727-4.819C17.214 5.412 13.802 2 9.607 2 5.413 2 2 5.412 2 9.607c0 4.194 3.413 7.607 7.607 7.607a7.575 7.575 0 0 0 4.82-1.727l5.793 5.793a.748.748 0 0 0 1.06 0 .75.75 0 0 0 0-1.06" fill="#FFF" fill-rule="evenodd"/></svg>